<svg width="32" height="32" viewBox="0 0 32 32" fill="none" xmlns="http://www.w3.org/2000/svg">
<path d="M12 0C14.2091 0 16 1.79086 16 4V5.33691C15.428 5.28373 14.8374 5.47614 14.3994 5.91406L5.91406 14.3994C5.47612 14.8374 5.28468 15.428 5.33789 16H4C1.79086 16 0 14.2091 0 12V4C0 1.79086 1.79086 0 4 0H12Z" fill="black"/>
<path d="M28 16C30.2091 16 32 17.7909 32 20V28C32 30.2091 30.2091 32 28 32H20C17.7909 32 16 30.2091 16 28V26.29C16.4481 26.2484 16.8845 26.056 17.2275 25.7129L25.7129 17.2275C26.056 16.8845 26.2484 16.4481 26.29 16H28Z" fill="black"/>
<path d="M5.33789 16C5.37956 16.448 5.57117 16.8845 5.91406 17.2275L14.3994 25.7129C14.8374 26.1509 15.428 26.3432 16 26.29V28C16 30.2091 14.2091 32 12 32H4C1.79086 32 0 30.2091 0 28V20C0 17.7909 1.79086 16 4 16H5.33789Z" fill="black"/>
<path d="M28 0C30.2091 0 32 1.79086 32 4V12C32 14.2091 30.2091 16 28 16H26.29C26.3432 15.428 26.1509 14.8374 25.7129 14.3994L17.2275 5.91406C16.8845 5.57114 16.448 5.37857 16 5.33691V4C16 1.79086 17.7909 0 20 0H28Z" fill="black"/>
</svg>
